<?xml version="1.0" encoding="UTF-8"?>
<svg xmlns="http://www.w3.org/2000/svg" width="1200" height="400" viewBox="0 0 1200 400" overflow="visible"><title>Click to download SVG</title><defs><clipPath/><mask id="mask-h-izewhj5n7"><rect rx="3" ry="3" fill="white" pointer-events="none" x="426" y="80" width="92" height="82"/><rect rx="3" ry="3" fill="white" pointer-events="none" x="644" y="80" width="92" height="82"/><rect rx="3" ry="3" fill="white" pointer-events="none" x="426" y="123.2" width="310" height="38.8"/><rect rx="3" ry="3" fill="black" pointer-events="none" x="518" y="70" width="126" height="53.2"/><rect rx="3" ry="3" fill="black" pointer-events="none" x="518" y="70" width="126" height="59.800000000000004"/><rect rx="3" ry="3" fill="white" pointer-events="none" x="426" y="188" width="92" height="82"/><rect rx="3" ry="3" fill="white" pointer-events="none" x="644" y="188" width="92" height="82"/><rect rx="3" ry="3" fill="white" pointer-events="none" x="426" y="188" width="310" height="38.8"/><rect rx="3" ry="3" fill="black" pointer-events="none" x="518" y="226.8" width="126" height="53.2"/><rect rx="3" ry="3" fill="black" pointer-events="none" x="518" y="220.10000000000002" width="126" height="60.7"/></mask></defs><clipPath id="clip-s-kvmdn3bcy"><circle cx="91" cy="121" r="41" fill="null" pointer-events="none"/><rect rx="4" ry="4" fill="white" pointer-events="none" x="91" y="80" width="283" height="82"/><circle cx="333" cy="229" r="41" fill="null" pointer-events="none"/><rect rx="4" ry="4" fill="white" pointer-events="none" x="50" y="188" width="283" height="82"/></clipPath><g clip-path="url(#clip-s-kvmdn3bcy)"><rect x="50" y="80" width="324" height="10" fill="white"/><rect x="50" y="94.4" width="324" height="10" fill="white"/><rect x="50" y="108.8" width="324" height="10" fill="white"/><rect x="50" y="123.2" width="324" height="10" fill="white"/><rect x="50" y="137.6" width="324" height="10" fill="white"/><rect x="50" y="152" width="324" height="10" fill="white"/><rect x="50" y="188" width="324" height="10" fill="white"/><rect x="50" y="202.4" width="324" height="10" fill="white"/><rect x="50" y="216.8" width="324" height="10" fill="white"/><rect x="50" y="231.2" width="324" height="10" fill="white"/><rect x="50" y="245.6" width="324" height="10" fill="white"/><rect x="50" y="260" width="324" height="10" fill="white"/></g><g mask="url(#mask-h-izewhj5n7)"><rect x="426" y="80" width="310" height="10" fill="white"/><rect x="426" y="94.4" width="310" height="10" fill="white"/><rect x="426" y="108.8" width="310" height="10" fill="white"/><rect x="426" y="123.2" width="310" height="10" fill="white"/><rect x="426" y="137.6" width="310" height="10" fill="white"/><rect x="426" y="152" width="310" height="10" fill="white"/><rect x="426" y="188" width="310" height="10" fill="white"/><rect x="426" y="202.4" width="310" height="10" fill="white"/><rect x="426" y="216.8" width="310" height="10" fill="white"/><rect x="426" y="231.2" width="310" height="10" fill="white"/><rect x="426" y="245.6" width="310" height="10" fill="white"/><rect x="426" y="260" width="310" height="10" fill="white"/></g><clipPath id="clip-o-2q9wwr9s4"><ellipse cx="841.3" cy="122.9" rx="53.300000000000004" ry="42.9" fill="null" pointer-events="none"/><ellipse cx="1054.7" cy="122.9" rx="53.300000000000004" ry="42.9" fill="null" pointer-events="none"/><rect rx="3" ry="3" fill="white" pointer-events="none" x="841.3" y="80" width="213.39999999999998" height="42.9"/><rect rx="3" ry="3" fill="white" pointer-events="none" x="788" y="122.9" width="320" height="39.1"/><ellipse cx="841.3" cy="227.1" rx="53.300000000000004" ry="42.9" fill="null" pointer-events="none"/><ellipse cx="1054.7" cy="227.1" rx="53.300000000000004" ry="42.9" fill="null" pointer-events="none"/><rect rx="3" ry="3" fill="white" pointer-events="none" x="841.3" y="227.1" width="213.39999999999998" height="42.9"/><rect rx="3" ry="3" fill="white" pointer-events="none" x="788" y="188" width="320" height="39.1"/></clipPath><g clip-path="url(#clip-o-2q9wwr9s4)"><rect x="788" y="80" width="320" height="10" fill="white"/><rect x="788" y="94.4" width="320" height="10" fill="white"/><rect x="788" y="108.8" width="320" height="10" fill="white"/><rect x="788" y="123.2" width="320" height="10" fill="white"/><rect x="788" y="137.6" width="320" height="10" fill="white"/><rect x="788" y="152" width="320" height="10" fill="white"/><rect x="788" y="188" width="320" height="10" fill="white"/><rect x="788" y="202.4" width="320" height="10" fill="white"/><rect x="788" y="216.8" width="320" height="10" fill="white"/><rect x="788" y="231.2" width="320" height="10" fill="white"/><rect x="788" y="245.6" width="320" height="10" fill="white"/><rect x="788" y="260" width="320" height="10" fill="white"/></g></svg>